HIERARCHY
ROOT Hips
{
    OFFSET 0.000000 0.000000 0.000000
    CHANNELS 6 Xposition Yposition Zposition Zrotation Xrotation Yrotation
    JOINT Spine
    {
        OFFSET -0.000000 0.084000 0.000000
        CHANNELS 3 Zrotation Xrotation Yrotation
        JOINT Spine1
        {
            OFFSET -0.000000 0.216247 0.000000
            CHANNELS 3 Zrotation Xrotation Yrotation
            JOINT Neck
            {
                OFFSET -0.000000 0.215359 0.019578
                CHANNELS 3 Zrotation Xrotation Yrotation
                JOINT Head
                {
                    OFFSET -0.000000 0.143414 -0.020488
                    CHANNELS 3 Zrotation Xrotation Yrotation
                    End Site
                    {
                        OFFSET -0.000000 0.204877 0.000000
                    }
                }
            }
            JOINT LeftShoulder
            {
                OFFSET 0.040109 0.191272 -0.003631
                CHANNELS 3 Zrotation Xrotation Yrotation
                JOINT LeftArm
                {
                    OFFSET 0.138349 0.000000 0.000000
                    CHANNELS 3 Zrotation Xrotation Yrotation
                    JOINT LeftForeArm
                    {
                        OFFSET 0.335349 0.000000 0.000000
                        CHANNELS 3 Zrotation Xrotation Yrotation
                        JOINT LeftHand
                        {
                            OFFSET 0.276368 0.000000 0.000000
                            CHANNELS 3 Zrotation Xrotation Yrotation
                            End Site
                            {
                                OFFSET 0.153658 0.000000 0.000000
                            }
                        }
                    }
                }
            }
            JOINT RightShoulder
            {
                OFFSET -0.041533 0.191272 -0.003631
                CHANNELS 3 Zrotation Xrotation Yrotation
                JOINT RightArm
                {
                    OFFSET -0.138349 0.000000 0.000000
                    CHANNELS 3 Zrotation Xrotation Yrotation
                    JOINT RightForeArm
                    {
                        OFFSET -0.335349 0.000000 0.000000
                        CHANNELS 3 Zrotation Xrotation Yrotation
                        JOINT RightHand
                        {
                            OFFSET -0.276368 0.000000 0.000000
                            CHANNELS 3 Zrotation Xrotation Yrotation
                            End Site
                            {
                                OFFSET -0.153658 0.000000 0.000000
                            }
                        }
                    }
                }
            }
        }
    }
    JOINT LeftUpLeg
    {
        OFFSET 0.102438 0.000000 0.000000
        CHANNELS 3 Zrotation Xrotation Yrotation
        JOINT LeftLeg
        {
            OFFSET -0.000000 -0.442852 0.000000
            CHANNELS 3 Zrotation Xrotation Yrotation
            JOINT LeftFoot
            {
                OFFSET -0.000000 -0.461647 0.000000
                CHANNELS 3 Zrotation Xrotation Yrotation
                JOINT LeftToeBase
                {
                    OFFSET -0.000000 -0.066585 0.153658
                    CHANNELS 3 Zrotation Xrotation Yrotation
                    End Site
                    {
                        OFFSET -0.000000 0.000000 0.040975
                    }
                }
            }
        }
    }
    JOINT RightUpLeg
    {
        OFFSET -0.102438 0.000000 0.000000
        CHANNELS 3 Zrotation Xrotation Yrotation
        JOINT RightLeg
        {
            OFFSET -0.000000 -0.442852 0.000000
            CHANNELS 3 Zrotation Xrotation Yrotation
            JOINT RightFoot
            {
                OFFSET -0.000000 -0.461647 0.000000
                CHANNELS 3 Zrotation Xrotation Yrotation
                JOINT RightToeBase
                {
                    OFFSET -0.000000 -0.066585 0.153658
                    CHANNELS 3 Zrotation Xrotation Yrotation
                    End Site
                    {
                        OFFSET -0.000000 0.000000 0.040975
                    }
                }
            }
        }
    }
}
MOTION
Frames:    8
Frame Time:    0.010000
-0.528234    0.445183    0.164496    -0.095912    -5.823201    -7.488480    -4.519924    5.062708    0.166614    6.786380    -7.416639    0.428172    -8.517413    21.082897    1.992400    0.012730    -4.098113    1.681235    11.990306    0.905055    4.137202    -9.204423    -4.224736    -1.815526    -2.526181    -5.401132    4.599771    7.070735    -5.347248    -0.766397    -14.558077    -4.620180    11.599036    14.181643    -12.319499    -1.782239    -2.486701    0.038140    -1.757182    -45.171440    -4.214895    10.106536    143.561111    -66.769547    132.813705    -113.254272    70.912186    101.047211    3.776690    -5.754114    1.670177    0.000000    0.000000    0.000000    177.904037    -71.437378    -179.027908    110.623428    79.261681    -121.114601    -10.916306    -4.265099    1.948013    0.000000    0.000000    0.000000    
-0.528438    0.445318    0.164579    -0.170946    -5.921347    -7.518578    -4.485399    5.130836    0.188870    6.783686    -7.402647    0.424690    -8.454886    21.268593    1.990916    -0.024177    -4.241548    1.660685    12.026602    0.978259    4.073423    -9.242925    -4.214657    -1.766322    -2.483002    -5.453048    4.522926    7.077446    -5.402789    -0.769296    -14.468802    -4.560384    11.694395    14.128583    -12.274426    -1.847210    -2.535764    -0.005472    -1.648654    -45.102467    -4.221925    10.044676    143.386520    -66.823441    132.590439    -113.349243    70.930801    101.109711    3.773641    -5.764189    1.678447    0.000000    0.000000    0.000000    177.827637    -71.567932    -179.169357    110.577728    79.260262    -121.064247    -10.913821    -4.273966    1.928710    0.000000    0.000000    0.000000    
-0.528594    0.445415    0.164640    -0.228769    -6.000274    -7.541203    -4.462174    5.175851    0.199368    6.787818    -7.373423    0.426618    -8.407704    21.422472    1.987584    -0.053368    -4.364333    1.641562    12.052052    1.035284    4.023160    -9.278396    -4.197231    -1.728114    -2.441238    -5.502430    4.446433    7.078687    -5.455730    -0.773916    -14.399629    -4.514705    11.770731    14.090013    -12.225022    -1.897860    -2.585315    -0.045052    -1.537422    -45.036118    -4.227273    9.984311    143.249741    -66.867699    132.417404    -113.424301    70.946732    101.159966    3.771253    -5.772883    1.684411    0.000000    0.000000    0.000000    177.769821    -71.671043    -179.277252    110.544304    79.259399    -121.027664    -10.912019    -4.280500    1.914551    0.000000    0.000000    0.000000    
-0.528707    0.445477    0.164679    -0.270971    -6.061672    -7.557735    -4.446685    5.202985    0.199636    6.794407    -7.332239    0.434713    -8.373521    21.540356    1.981276    -0.074624    -4.461187    1.623213    12.069205    1.074718    3.987565    -9.310716    -4.170901    -1.703681    -2.402251    -5.546234    4.371177    7.076367    -5.502815    -0.777366    -14.350080    -4.483933    11.823831    14.068331    -12.168882    -1.931394    -2.635777    -0.080101    -1.420345    -44.969250    -4.228580    9.923020    143.147141    -66.902733    132.289200    -113.480530    70.960052    101.199081    3.769248    -5.778821    1.687538    0.000000    0.000000    0.000000    177.727615    -71.749359    -179.356720    110.519142    79.259865    -121.001366    -10.911161    -4.284058    1.904669    0.000000    0.000000    0.000000    
-0.528793    0.445519    0.164702    -0.304283    -6.113075    -7.571398    -4.434423    5.221902    0.199734    6.800811    -7.286748    0.441547    -8.348980    21.634047    1.973215    -0.089363    -4.537869    1.605672    12.079442    1.102925    3.959983    -9.338735    -4.135376    -1.688096    -2.365909    -5.584017    4.297493    7.069876    -5.543414    -0.776828    -14.314272    -4.462845    11.861809    14.059859    -12.104789    -1.953804    -2.689060    -0.114641    -1.294928    -44.899586    -4.225506    9.856719    143.062653    -66.932152    132.183701    -113.523743    70.970528    101.229347    3.767082    -5.782755    1.690068    0.000000    0.000000    0.000000    177.693008    -71.813644    -179.421097    110.495621    79.260818    -120.978165    -10.911608    -4.285792    1.897068    0.000000    0.000000    0.000000    
-0.528859    0.445545    0.164715    -0.329999    -6.156237    -7.581725    -4.424637    5.233089    0.209530    6.804661    -7.239798    0.435699    -8.333427    21.710960    1.964585    -0.096102    -4.598969    1.590021    12.084100    1.123274    3.935867    -9.362939    -4.090972    -1.677359    -2.331899    -5.616898    4.225235    7.057236    -5.578554    -0.770393    -14.287874    -4.447634    11.890691    14.061334    -12.032958    -1.968898    -2.746986    -0.149701    -1.159120    -44.824280    -4.219266    9.781811    142.994766    -66.957375    132.098190    -113.555435    70.977898    101.251350    3.762970    -5.784679    1.692553    0.000000    0.000000    0.000000    177.667542    -71.866020    -179.469543    110.476685    79.261581    -120.960060    -10.912616    -4.286645    1.890971    0.000000    0.000000    0.000000    
-0.528901    0.445549    0.164719    -0.346141    -6.188614    -7.587139    -4.417927    5.232408    0.209135    6.806037    -7.188931    0.434822    -8.326068    21.772972    1.955803    -0.093325    -4.645360    1.576670    12.085476    1.136257    3.913856    -9.384418    -4.040192    -1.670465    -2.300879    -5.645541    4.154545    7.036791    -5.608819    -0.757400    -14.267299    -4.435832    11.911801    14.070300    -11.955050    -1.976871    -2.810551    -0.185741    -1.010275    -44.738007    -4.207757    9.695185    142.949524    -66.977547    132.040848    -113.574554    70.982193    101.265739    3.759744    -5.785751    1.693897    0.000000    0.000000    0.000000    177.655121    -71.902779    -179.496811    110.469406    79.262482    -120.954269    -10.913051    -4.286967    1.887175    0.000000    0.000000    0.000000    
-0.528922    0.445535    0.164718    -0.354178    -6.210914    -7.589911    -4.413891    5.220144    0.208422    6.803984    -7.135579    0.430376    -8.323077    21.823298    1.947067    -0.085594    -4.679493    1.565032    12.085020    1.143975    3.893716    -9.404220    -3.986123    -1.667215    -2.272011    -5.671808    4.086168    7.001763    -5.636280    -0.741627    -14.250030    -4.426040    11.927495    14.085418    -11.869919    -1.978593    -2.882285    -0.223404    -0.846402    -44.635746    -4.189745    9.593203    142.921738    -66.991333    132.005508    -113.584450    70.983490    101.274780    3.759265    -5.785866    1.694266    0.000000    0.000000    0.000000    177.648514    -71.925316    -179.511444    110.470901    79.263603    -120.958313    -10.912447    -4.287819    1.886343    0.000000    0.000000    0.000000    
